<svg width="24" height="17" viewBox="0 0 24 17" fill="none" xmlns="http://www.w3.org/2000/svg">
<path d="M23.1349 1.75559C23.2952 1.12831 23.1349 0.666626 22.3639 0.666626H19.8125C19.1628 0.666626 18.8639 1.06307 18.7037 1.50468C18.7037 1.50468 17.4042 5.17305 15.5676 7.55171C14.9741 8.23922 14.7013 8.46002 14.3764 8.46002C14.2161 8.46002 13.9692 8.23922 13.9692 7.61193V1.75559C13.9692 1.00285 13.7873 0.666626 13.2502 0.666626H9.2391C8.83193 0.666626 8.58936 1.01791 8.58936 1.34409C8.58936 2.05669 9.50766 2.22229 9.60296 4.22961V8.58548C9.60296 9.53895 9.45568 9.71459 9.13081 9.71459C8.26449 9.71459 6.15933 6.03117 4.91183 1.81581C4.6606 0.997833 4.4137 0.666626 3.75963 0.666626H1.20831C0.480603 0.666626 0.333328 1.06307 0.333328 1.50468C0.333328 2.28753 1.19965 6.1767 4.36605 11.3154C6.47554 14.8232 9.44702 16.7251 12.1499 16.7251C13.7743 16.7251 13.9735 16.3036 13.9735 15.576C13.9735 12.2237 13.8263 11.9076 14.6406 11.9076C15.0175 11.9076 15.6672 12.1284 17.1833 13.8196C18.9159 15.8269 19.2018 16.7251 20.1721 16.7251H22.7234C23.4511 16.7251 23.8193 16.3036 23.607 15.4706C23.1219 13.7192 19.8429 10.1161 19.6956 9.87518C19.3187 9.31313 19.427 9.06222 19.6956 8.56039C19.6999 8.55537 22.8143 3.47687 23.1349 1.75559Z" fill="#636363"/>
</svg>
