<svg width="25" height="24" viewBox="0 0 25 24" fill="none" xmlns="http://www.w3.org/2000/svg">
<path d="M23.2 5.55006C19.6 6.06775e-05 12.25 -1.64994 6.55 1.80006C1 5.25006 -0.799995 12.7501 2.80001 18.3001L3.10001 18.7501L1.90001 23.2501L6.40001 22.0501L6.85001 22.3501C8.80001 23.4001 10.9 24.0001 13 24.0001C15.25 24.0001 17.5 23.4001 19.45 22.2001C25 18.6001 26.65 11.2501 23.2 5.55006ZM20.05 17.1001C19.45 18.0001 18.7 18.6001 17.65 18.7501C17.05 18.7501 16.3 19.0501 13.3 17.8501C10.75 16.6501 8.65001 14.7001 7.15001 12.4501C6.25001 11.4001 5.8 10.0501 5.65001 8.70006C5.65001 7.50006 6.10001 6.45006 6.85001 5.70006C7.15001 5.40006 7.45001 5.25006 7.75001 5.25006H8.50001C8.80001 5.25006 9.10001 5.25006 9.25001 5.85006C9.55 6.60006 10.3 8.40006 10.3 8.55006C10.45 8.70006 10.45 9.00006 10.3 9.15006C10.45 9.45006 10.3 9.75006 10.15 9.90006C10 10.0501 9.85001 10.3501 9.70001 10.5001C9.40001 10.6501 9.25 10.9501 9.40001 11.2501C10 12.1501 10.75 13.0501 11.5 13.8001C12.4 14.5501 13.3 15.1501 14.35 15.6001C14.65 15.7501 14.95 15.7501 15.1 15.4501C15.25 15.1501 16 14.4001 16.3 14.1001C16.6 13.8001 16.75 13.8001 17.05 13.9501L19.45 15.1501C19.75 15.3001 20.05 15.4501 20.2 15.6001C20.35 16.0501 20.35 16.6501 20.05 17.1001Z" fill="#636363"/>
</svg>
